<mxfile host="app.diagrams.net" agent="Mozilla/5.0 (Windows NT 10.0; Win64; x64) AppleWebKit/537.36 (KHTML, like Gecko) Chrome/131.0.0.0 Safari/537.36" version="25.0.3">
  <diagram name="Page-1" id="bYfEJG6t8cpbJtYoTWWh">
    <mxGraphModel dx="1107" dy="535" grid="1" gridSize="10" guides="1" tooltips="1" connect="1" arrows="1" fold="1" page="1" pageScale="1" pageWidth="827" pageHeight="1169" math="0" shadow="0">
      <root>
        <mxCell id="0" />
        <mxCell id="1" parent="0" />
        <mxCell id="r3u1hQ6adHJvitzpCc8Z-2" value="" style="ellipse;html=1;shape=startState;fillColor=#000000;strokeColor=#ff0000;fontSize=15;movable=0;resizable=0;rotatable=0;deletable=0;editable=0;locked=1;connectable=0;" parent="1" vertex="1">
          <mxGeometry x="390" y="117" width="50" height="50" as="geometry" />
        </mxCell>
        <mxCell id="r3u1hQ6adHJvitzpCc8Z-4" value="" style="endArrow=classic;html=1;rounded=0;exitX=0.5;exitY=1;exitDx=0;exitDy=0;entryX=0.5;entryY=0.5;entryDx=0;entryDy=-15;entryPerimeter=0;movable=0;resizable=0;rotatable=0;deletable=0;editable=0;locked=1;connectable=0;" parent="1" source="r3u1hQ6adHJvitzpCc8Z-2" target="r3u1hQ6adHJvitzpCc8Z-5" edge="1">
          <mxGeometry width="50" height="50" relative="1" as="geometry">
            <mxPoint x="371" y="327" as="sourcePoint" />
            <mxPoint x="415" y="197" as="targetPoint" />
          </mxGeometry>
        </mxCell>
        <mxCell id="r3u1hQ6adHJvitzpCc8Z-5" value="Login" style="html=1;dashed=0;whiteSpace=wrap;shape=mxgraph.dfd.start;movable=0;resizable=0;rotatable=0;deletable=0;editable=0;locked=1;connectable=0;" parent="1" vertex="1">
          <mxGeometry x="338" y="197" width="154" height="30" as="geometry" />
        </mxCell>
        <mxCell id="r3u1hQ6adHJvitzpCc8Z-6" value="" style="rhombus;whiteSpace=wrap;html=1;movable=0;resizable=0;rotatable=0;deletable=0;editable=0;locked=1;connectable=0;" parent="1" vertex="1">
          <mxGeometry x="375" y="267" width="80" height="50" as="geometry" />
        </mxCell>
        <mxCell id="r3u1hQ6adHJvitzpCc8Z-7" value="" style="endArrow=classic;html=1;rounded=0;exitX=0.5;exitY=0.5;exitDx=0;exitDy=15;exitPerimeter=0;entryX=0.5;entryY=0;entryDx=0;entryDy=0;movable=0;resizable=0;rotatable=0;deletable=0;editable=0;locked=1;connectable=0;" parent="1" source="r3u1hQ6adHJvitzpCc8Z-5" target="r3u1hQ6adHJvitzpCc8Z-6" edge="1">
          <mxGeometry width="50" height="50" relative="1" as="geometry">
            <mxPoint x="421" y="277" as="sourcePoint" />
            <mxPoint x="415" y="267" as="targetPoint" />
          </mxGeometry>
        </mxCell>
        <mxCell id="r3u1hQ6adHJvitzpCc8Z-9" value="[Invalid user]" style="strokeWidth=1;shadow=0;dashed=0;align=center;html=1;shape=mxgraph.mockup.text.textBox;fontColor=#666666;align=left;fontSize=17;spacingLeft=4;spacingTop=-3;whiteSpace=wrap;strokeColor=none;mainText=;fillColor=none;movable=0;resizable=0;rotatable=0;deletable=0;editable=0;locked=1;connectable=0;" parent="1" vertex="1">
          <mxGeometry x="471" y="257" width="116" height="40" as="geometry" />
        </mxCell>
        <mxCell id="r3u1hQ6adHJvitzpCc8Z-10" value="Login" style="html=1;dashed=0;whiteSpace=wrap;shape=mxgraph.dfd.start;movable=0;resizable=0;rotatable=0;deletable=0;editable=0;locked=1;connectable=0;" parent="1" vertex="1">
          <mxGeometry x="338" y="197" width="154" height="30" as="geometry" />
        </mxCell>
        <mxCell id="r3u1hQ6adHJvitzpCc8Z-11" value="Alert &quot;Invalid user id or password&quot;" style="html=1;dashed=0;whiteSpace=wrap;shape=mxgraph.dfd.start;movable=0;resizable=0;rotatable=0;deletable=0;editable=0;locked=1;connectable=0;" parent="1" vertex="1">
          <mxGeometry x="581" y="277" width="154" height="30" as="geometry" />
        </mxCell>
        <mxCell id="r3u1hQ6adHJvitzpCc8Z-13" value="" style="endArrow=classic;html=1;rounded=0;exitX=1;exitY=0.5;exitDx=0;exitDy=0;entryX=0;entryY=0.5;entryDx=0;entryDy=0;entryPerimeter=0;movable=0;resizable=0;rotatable=0;deletable=0;editable=0;locked=1;connectable=0;" parent="1" source="r3u1hQ6adHJvitzpCc8Z-6" target="r3u1hQ6adHJvitzpCc8Z-11" edge="1">
          <mxGeometry width="50" height="50" relative="1" as="geometry">
            <mxPoint x="481" y="287" as="sourcePoint" />
            <mxPoint x="481" y="327" as="targetPoint" />
          </mxGeometry>
        </mxCell>
        <mxCell id="r3u1hQ6adHJvitzpCc8Z-14" value="" style="endArrow=classic;html=1;rounded=0;exitX=0.5;exitY=0.5;exitDx=0;exitDy=-15;exitPerimeter=0;entryX=1;entryY=0.5;entryDx=0;entryDy=0;entryPerimeter=0;movable=0;resizable=0;rotatable=0;deletable=0;editable=0;locked=1;connectable=0;" parent="1" source="r3u1hQ6adHJvitzpCc8Z-11" target="r3u1hQ6adHJvitzpCc8Z-10" edge="1">
          <mxGeometry width="50" height="50" relative="1" as="geometry">
            <mxPoint x="595" y="226.2" as="sourcePoint" />
            <mxPoint x="658" y="177" as="targetPoint" />
            <Array as="points">
              <mxPoint x="658" y="212" />
            </Array>
          </mxGeometry>
        </mxCell>
        <mxCell id="r3u1hQ6adHJvitzpCc8Z-15" value="" style="endArrow=classic;html=1;rounded=0;exitX=0.5;exitY=1;exitDx=0;exitDy=0;entryX=0.5;entryY=0.5;entryDx=0;entryDy=-15;entryPerimeter=0;movable=0;resizable=0;rotatable=0;deletable=0;editable=0;locked=1;connectable=0;" parent="1" source="r3u1hQ6adHJvitzpCc8Z-6" target="r3u1hQ6adHJvitzpCc8Z-16" edge="1">
          <mxGeometry width="50" height="50" relative="1" as="geometry">
            <mxPoint x="415" y="347" as="sourcePoint" />
            <mxPoint x="415" y="347" as="targetPoint" />
          </mxGeometry>
        </mxCell>
        <mxCell id="r3u1hQ6adHJvitzpCc8Z-16" value="Request for blood" style="html=1;dashed=0;whiteSpace=wrap;shape=mxgraph.dfd.start;movable=0;resizable=0;rotatable=0;deletable=0;editable=0;locked=1;connectable=0;" parent="1" vertex="1">
          <mxGeometry x="338" y="347" width="154" height="30" as="geometry" />
        </mxCell>
        <mxCell id="r3u1hQ6adHJvitzpCc8Z-18" value="[Valid user]" style="strokeWidth=1;shadow=0;dashed=0;align=center;html=1;shape=mxgraph.mockup.text.textBox;fontColor=#666666;align=left;fontSize=17;spacingLeft=4;spacingTop=-3;whiteSpace=wrap;strokeColor=none;mainText=;fillColor=none;movable=0;resizable=0;rotatable=0;deletable=0;editable=0;locked=1;connectable=0;" parent="1" vertex="1">
          <mxGeometry x="315" y="307" width="116" height="40" as="geometry" />
        </mxCell>
        <mxCell id="r3u1hQ6adHJvitzpCc8Z-19" value="Alert &quot;Blood not available&quot;" style="html=1;dashed=0;whiteSpace=wrap;shape=mxgraph.dfd.start;movable=0;resizable=0;rotatable=0;deletable=0;editable=0;locked=1;connectable=0;" parent="1" vertex="1">
          <mxGeometry x="581" y="427" width="154" height="30" as="geometry" />
        </mxCell>
        <mxCell id="r3u1hQ6adHJvitzpCc8Z-20" value="" style="endArrow=classic;html=1;rounded=0;exitX=1;exitY=0.5;exitDx=0;exitDy=0;entryX=0;entryY=0.5;entryDx=0;entryDy=0;entryPerimeter=0;movable=0;resizable=0;rotatable=0;deletable=0;editable=0;locked=1;connectable=0;" parent="1" source="hneWYsN_35IAG7HcetKr-1" target="r3u1hQ6adHJvitzpCc8Z-19" edge="1">
          <mxGeometry width="50" height="50" relative="1" as="geometry">
            <mxPoint x="492" y="441" as="sourcePoint" />
            <mxPoint x="607" y="405.6" as="targetPoint" />
          </mxGeometry>
        </mxCell>
        <mxCell id="r3u1hQ6adHJvitzpCc8Z-21" value="[Blood not available]" style="strokeWidth=1;shadow=0;dashed=0;align=center;html=1;shape=mxgraph.mockup.text.textBox;fontColor=#666666;align=left;fontSize=17;spacingLeft=4;spacingTop=-3;whiteSpace=wrap;strokeColor=none;mainText=;fillColor=none;movable=0;resizable=0;rotatable=0;deletable=0;editable=0;locked=1;connectable=0;" parent="1" vertex="1">
          <mxGeometry x="440" y="396" width="166" height="40" as="geometry" />
        </mxCell>
        <mxCell id="r3u1hQ6adHJvitzpCc8Z-27" value="" style="endArrow=classic;html=1;rounded=0;exitX=0.5;exitY=0.5;exitDx=0;exitDy=15;exitPerimeter=0;entryX=0.5;entryY=0;entryDx=0;entryDy=0;movable=0;resizable=0;rotatable=0;deletable=0;editable=0;locked=1;connectable=0;" parent="1" source="r3u1hQ6adHJvitzpCc8Z-19" target="r3u1hQ6adHJvitzpCc8Z-29" edge="1">
          <mxGeometry width="50" height="50" relative="1" as="geometry">
            <mxPoint x="521" y="557" as="sourcePoint" />
            <mxPoint x="658" y="507" as="targetPoint" />
          </mxGeometry>
        </mxCell>
        <mxCell id="r3u1hQ6adHJvitzpCc8Z-29" value="" style="ellipse;html=1;shape=endState;fillColor=#000000;strokeColor=#ff0000;movable=0;resizable=0;rotatable=0;deletable=0;editable=0;locked=1;connectable=0;" parent="1" vertex="1">
          <mxGeometry x="633" y="487" width="50" height="50" as="geometry" />
        </mxCell>
        <mxCell id="r3u1hQ6adHJvitzpCc8Z-31" value="Doctor available" style="html=1;dashed=0;whiteSpace=wrap;shape=mxgraph.dfd.start;movable=0;resizable=0;rotatable=0;deletable=0;editable=0;locked=1;connectable=0;" parent="1" vertex="1">
          <mxGeometry x="338" y="533" width="154" height="30" as="geometry" />
        </mxCell>
        <mxCell id="r3u1hQ6adHJvitzpCc8Z-32" value="[Blood available]" style="strokeWidth=1;shadow=0;dashed=0;align=center;html=1;shape=mxgraph.mockup.text.textBox;fontColor=#666666;align=left;fontSize=17;spacingLeft=4;spacingTop=-3;whiteSpace=wrap;strokeColor=none;mainText=;fillColor=none;movable=0;resizable=0;rotatable=0;deletable=0;editable=0;locked=1;connectable=0;" parent="1" vertex="1">
          <mxGeometry x="268" y="467" width="134" height="40" as="geometry" />
        </mxCell>
        <mxCell id="r3u1hQ6adHJvitzpCc8Z-35" value="" style="endArrow=classic;html=1;rounded=0;exitX=0.5;exitY=0.5;exitDx=0;exitDy=15;exitPerimeter=0;entryX=0.5;entryY=0;entryDx=0;entryDy=0;movable=0;resizable=0;rotatable=0;deletable=0;editable=0;locked=1;connectable=0;" parent="1" source="r3u1hQ6adHJvitzpCc8Z-31" target="r3u1hQ6adHJvitzpCc8Z-37" edge="1">
          <mxGeometry width="50" height="50" relative="1" as="geometry">
            <mxPoint x="414" y="573" as="sourcePoint" />
            <mxPoint x="415" y="603" as="targetPoint" />
          </mxGeometry>
        </mxCell>
        <mxCell id="r3u1hQ6adHJvitzpCc8Z-37" value="" style="rhombus;whiteSpace=wrap;html=1;movable=0;resizable=0;rotatable=0;deletable=0;editable=0;locked=1;connectable=0;" parent="1" vertex="1">
          <mxGeometry x="375" y="603" width="80" height="50" as="geometry" />
        </mxCell>
        <mxCell id="r3u1hQ6adHJvitzpCc8Z-38" value="" style="endArrow=classic;html=1;rounded=0;exitX=1;exitY=0.5;exitDx=0;exitDy=0;entryX=0;entryY=0.5;entryDx=0;entryDy=0;entryPerimeter=0;movable=0;resizable=0;rotatable=0;deletable=0;editable=0;locked=1;connectable=0;" parent="1" source="r3u1hQ6adHJvitzpCc8Z-37" target="r3u1hQ6adHJvitzpCc8Z-39" edge="1">
          <mxGeometry width="50" height="50" relative="1" as="geometry">
            <mxPoint x="456" y="628" as="sourcePoint" />
            <mxPoint x="541" y="628" as="targetPoint" />
          </mxGeometry>
        </mxCell>
        <mxCell id="r3u1hQ6adHJvitzpCc8Z-39" value="Alert &quot;Doctor not available&quot;" style="html=1;dashed=0;whiteSpace=wrap;shape=mxgraph.dfd.start;movable=0;resizable=0;rotatable=0;deletable=0;editable=0;locked=1;connectable=0;" parent="1" vertex="1">
          <mxGeometry x="529" y="613" width="154" height="30" as="geometry" />
        </mxCell>
        <mxCell id="r3u1hQ6adHJvitzpCc8Z-40" value="" style="endArrow=classic;html=1;rounded=0;exitX=0.5;exitY=0.5;exitDx=0;exitDy=-15;exitPerimeter=0;entryX=1;entryY=0.5;entryDx=0;entryDy=0;entryPerimeter=0;movable=0;resizable=0;rotatable=0;deletable=0;editable=0;locked=1;connectable=0;" parent="1" source="r3u1hQ6adHJvitzpCc8Z-39" target="r3u1hQ6adHJvitzpCc8Z-31" edge="1">
          <mxGeometry width="50" height="50" relative="1" as="geometry">
            <mxPoint x="606" y="588" as="sourcePoint" />
            <mxPoint x="440" y="523" as="targetPoint" />
            <Array as="points">
              <mxPoint x="606" y="548" />
            </Array>
          </mxGeometry>
        </mxCell>
        <mxCell id="r3u1hQ6adHJvitzpCc8Z-41" value="[Doctor not available]" style="strokeWidth=1;shadow=0;dashed=0;align=center;html=1;shape=mxgraph.mockup.text.textBox;fontColor=#666666;align=left;fontSize=17;spacingLeft=4;spacingTop=-3;whiteSpace=wrap;strokeColor=none;mainText=;fillColor=none;movable=0;resizable=0;rotatable=0;deletable=0;editable=0;locked=1;connectable=0;" parent="1" vertex="1">
          <mxGeometry x="434" y="583" width="166" height="40" as="geometry" />
        </mxCell>
        <mxCell id="r3u1hQ6adHJvitzpCc8Z-42" value="Book appointment" style="html=1;dashed=0;whiteSpace=wrap;shape=mxgraph.dfd.start;movable=0;resizable=0;rotatable=0;deletable=0;editable=0;locked=1;connectable=0;" parent="1" vertex="1">
          <mxGeometry x="338" y="693" width="154" height="30" as="geometry" />
        </mxCell>
        <mxCell id="r3u1hQ6adHJvitzpCc8Z-43" value="" style="endArrow=classic;html=1;rounded=0;exitX=0.5;exitY=1;exitDx=0;exitDy=0;entryX=0.5;entryY=0.5;entryDx=0;entryDy=-15;entryPerimeter=0;movable=0;resizable=0;rotatable=0;deletable=0;editable=0;locked=1;connectable=0;" parent="1" source="r3u1hQ6adHJvitzpCc8Z-37" target="r3u1hQ6adHJvitzpCc8Z-42" edge="1">
          <mxGeometry width="50" height="50" relative="1" as="geometry">
            <mxPoint x="465" y="638" as="sourcePoint" />
            <mxPoint x="539" y="638" as="targetPoint" />
          </mxGeometry>
        </mxCell>
        <mxCell id="r3u1hQ6adHJvitzpCc8Z-44" value="[Doctor available]" style="strokeWidth=1;shadow=0;dashed=0;align=center;html=1;shape=mxgraph.mockup.text.textBox;fontColor=#666666;align=left;fontSize=17;spacingLeft=4;spacingTop=-3;whiteSpace=wrap;strokeColor=none;mainText=;fillColor=none;movable=0;resizable=0;rotatable=0;deletable=0;editable=0;locked=1;connectable=0;" parent="1" vertex="1">
          <mxGeometry x="268" y="653" width="166" height="40" as="geometry" />
        </mxCell>
        <mxCell id="r3u1hQ6adHJvitzpCc8Z-45" value="" style="endArrow=classic;html=1;rounded=0;exitX=0.5;exitY=0.5;exitDx=0;exitDy=15;exitPerimeter=0;movable=0;resizable=0;rotatable=0;deletable=0;editable=0;locked=1;connectable=0;" parent="1" source="r3u1hQ6adHJvitzpCc8Z-42" edge="1">
          <mxGeometry width="50" height="50" relative="1" as="geometry">
            <mxPoint x="415" y="783" as="sourcePoint" />
            <mxPoint x="415" y="783" as="targetPoint" />
          </mxGeometry>
        </mxCell>
        <mxCell id="r3u1hQ6adHJvitzpCc8Z-46" value="" style="endArrow=none;startArrow=none;endFill=0;startFill=0;endSize=8;html=1;verticalAlign=bottom;labelBackgroundColor=none;strokeWidth=3;rounded=0;movable=0;resizable=0;rotatable=0;deletable=0;editable=0;locked=1;connectable=0;" parent="1" edge="1">
          <mxGeometry width="160" relative="1" as="geometry">
            <mxPoint x="291" y="783" as="sourcePoint" />
            <mxPoint x="538" y="783" as="targetPoint" />
          </mxGeometry>
        </mxCell>
        <mxCell id="r3u1hQ6adHJvitzpCc8Z-47" value="Register appointment" style="html=1;dashed=0;whiteSpace=wrap;shape=mxgraph.dfd.start;movable=0;resizable=0;rotatable=0;deletable=0;editable=0;locked=1;connectable=0;" parent="1" vertex="1">
          <mxGeometry x="251" y="833" width="154" height="30" as="geometry" />
        </mxCell>
        <mxCell id="r3u1hQ6adHJvitzpCc8Z-48" value="Informed doctor" style="html=1;dashed=0;whiteSpace=wrap;shape=mxgraph.dfd.start;movable=0;resizable=0;rotatable=0;deletable=0;editable=0;locked=1;connectable=0;" parent="1" vertex="1">
          <mxGeometry x="415" y="833" width="154" height="30" as="geometry" />
        </mxCell>
        <mxCell id="r3u1hQ6adHJvitzpCc8Z-49" value="" style="endArrow=classic;html=1;rounded=0;entryX=0.5;entryY=0.5;entryDx=0;entryDy=-15;entryPerimeter=0;movable=0;resizable=0;rotatable=0;deletable=0;editable=0;locked=1;connectable=0;" parent="1" target="r3u1hQ6adHJvitzpCc8Z-47" edge="1">
          <mxGeometry width="50" height="50" relative="1" as="geometry">
            <mxPoint x="328" y="783" as="sourcePoint" />
            <mxPoint x="425" y="793" as="targetPoint" />
          </mxGeometry>
        </mxCell>
        <mxCell id="r3u1hQ6adHJvitzpCc8Z-50" value="" style="endArrow=classic;html=1;rounded=0;entryX=0.5;entryY=0.5;entryDx=0;entryDy=-15;entryPerimeter=0;movable=0;resizable=0;rotatable=0;deletable=0;editable=0;locked=1;connectable=0;" parent="1" target="r3u1hQ6adHJvitzpCc8Z-48" edge="1">
          <mxGeometry width="50" height="50" relative="1" as="geometry">
            <mxPoint x="492" y="783" as="sourcePoint" />
            <mxPoint x="481" y="833" as="targetPoint" />
          </mxGeometry>
        </mxCell>
        <mxCell id="r3u1hQ6adHJvitzpCc8Z-51" value="" style="endArrow=none;startArrow=none;endFill=0;startFill=0;endSize=8;html=1;verticalAlign=bottom;labelBackgroundColor=none;strokeWidth=3;rounded=0;movable=0;resizable=0;rotatable=0;deletable=0;editable=0;locked=1;connectable=0;" parent="1" edge="1">
          <mxGeometry width="160" relative="1" as="geometry">
            <mxPoint x="291" y="913" as="sourcePoint" />
            <mxPoint x="538" y="913" as="targetPoint" />
          </mxGeometry>
        </mxCell>
        <mxCell id="r3u1hQ6adHJvitzpCc8Z-52" value="" style="endArrow=classic;html=1;rounded=0;entryX=0.5;entryY=0.5;entryDx=0;entryDy=-15;entryPerimeter=0;movable=0;resizable=0;rotatable=0;deletable=0;editable=0;locked=1;connectable=0;" parent="1" edge="1">
          <mxGeometry width="50" height="50" relative="1" as="geometry">
            <mxPoint x="327.66" y="863" as="sourcePoint" />
            <mxPoint x="327.66" y="913" as="targetPoint" />
          </mxGeometry>
        </mxCell>
        <mxCell id="r3u1hQ6adHJvitzpCc8Z-53" value="" style="endArrow=classic;html=1;rounded=0;entryX=0.5;entryY=0.5;entryDx=0;entryDy=-15;entryPerimeter=0;movable=0;resizable=0;rotatable=0;deletable=0;editable=0;locked=1;connectable=0;" parent="1" edge="1">
          <mxGeometry width="50" height="50" relative="1" as="geometry">
            <mxPoint x="491.31000000000006" y="863" as="sourcePoint" />
            <mxPoint x="491.31000000000006" y="913" as="targetPoint" />
          </mxGeometry>
        </mxCell>
        <mxCell id="r3u1hQ6adHJvitzpCc8Z-54" value="" style="endArrow=classic;html=1;rounded=0;entryX=0.5;entryY=0;entryDx=0;entryDy=0;movable=0;resizable=0;rotatable=0;deletable=0;editable=0;locked=1;connectable=0;" parent="1" target="r3u1hQ6adHJvitzpCc8Z-55" edge="1">
          <mxGeometry width="50" height="50" relative="1" as="geometry">
            <mxPoint x="415" y="913" as="sourcePoint" />
            <mxPoint x="414" y="973" as="targetPoint" />
          </mxGeometry>
        </mxCell>
        <mxCell id="r3u1hQ6adHJvitzpCc8Z-55" value="" style="ellipse;html=1;shape=endState;fillColor=#000000;strokeColor=#ff0000;movable=0;resizable=0;rotatable=0;deletable=0;editable=0;locked=1;connectable=0;" parent="1" vertex="1">
          <mxGeometry x="390" y="973" width="50" height="50" as="geometry" />
        </mxCell>
        <mxCell id="hneWYsN_35IAG7HcetKr-1" value="" style="rhombus;whiteSpace=wrap;html=1;movable=0;resizable=0;rotatable=0;deletable=0;editable=0;locked=1;connectable=0;" vertex="1" parent="1">
          <mxGeometry x="375" y="417" width="80" height="50" as="geometry" />
        </mxCell>
        <mxCell id="hneWYsN_35IAG7HcetKr-2" value="" style="endArrow=classic;html=1;rounded=0;entryX=0.5;entryY=0;entryDx=0;entryDy=0;movable=0;resizable=0;rotatable=0;deletable=0;editable=0;locked=1;connectable=0;" edge="1" parent="1" target="hneWYsN_35IAG7HcetKr-1">
          <mxGeometry width="50" height="50" relative="1" as="geometry">
            <mxPoint x="415" y="376" as="sourcePoint" />
            <mxPoint x="414" y="436" as="targetPoint" />
          </mxGeometry>
        </mxCell>
        <mxCell id="hneWYsN_35IAG7HcetKr-3" value="" style="endArrow=classic;html=1;rounded=0;entryX=0.5;entryY=0.5;entryDx=0;entryDy=-15;movable=0;resizable=0;rotatable=0;deletable=0;editable=0;locked=1;connectable=0;exitX=0.5;exitY=1;exitDx=0;exitDy=0;entryPerimeter=0;" edge="1" parent="1" source="hneWYsN_35IAG7HcetKr-1" target="r3u1hQ6adHJvitzpCc8Z-31">
          <mxGeometry width="50" height="50" relative="1" as="geometry">
            <mxPoint x="414.41" y="480" as="sourcePoint" />
            <mxPoint x="414.41" y="521" as="targetPoint" />
          </mxGeometry>
        </mxCell>
      </root>
    </mxGraphModel>
  </diagram>
</mxfile>
